<?xml version="1.0" encoding="UTF-8" standalone="no"?>
<!DOCTYPE svg PUBLIC "-//W3C//DTD SVG 1.1//EN"
 "http://www.w3.org/Graphics/SVG/1.1/DTD/svg11.dtd">
<!-- Generated by graphviz version 2.47.0 (20210316.0004)
 -->
<!-- Title: dependencies Pages: 1 -->
<svg width="2902pt" height="284pt"
 viewBox="0.00 0.00 2902.00 284.00" xmlns="http://www.w3.org/2000/svg" xmlns:xlink="http://www.w3.org/1999/xlink">
<g id="graph0" class="graph" transform="scale(1 1) rotate(0) translate(4 280)">
<title>dependencies</title>
<polygon fill="white" stroke="transparent" points="-4,4 -4,-280 2898,-280 2898,4 -4,4"/>
<text text-anchor="start" x="1426.01" y="-42.4" font-family="Times-12" font-weight="bold" font-size="14.00">Legend</text>
<polygon fill="#ffffb3" stroke="transparent" points="1213,-10 1213,-30 1233,-30 1233,-10 1213,-10"/>
<text text-anchor="start" x="1236.63" y="-15.4" font-family="Times-12" font-size="14.00"> &#160;Declarations</text>
<polygon fill="#8dd3c7" stroke="transparent" points="1326,-10 1326,-30 1346,-30 1346,-10 1326,-10"/>
<text text-anchor="start" x="1349.73" y="-15.4" font-family="Times-12" font-size="14.00"> &#160;Module</text>
<polygon fill="#80b1d3" stroke="transparent" points="1412,-10 1412,-30 1432,-30 1432,-10 1412,-10"/>
<text text-anchor="start" x="1435.78" y="-15.4" font-family="Times-12" font-size="14.00"> &#160;Bootstrap</text>
<polygon fill="#fdb462" stroke="transparent" points="1509,-10 1509,-30 1529,-30 1529,-10 1509,-10"/>
<text text-anchor="start" x="1532.67" y="-15.4" font-family="Times-12" font-size="14.00"> &#160;Providers</text>
<polygon fill="#fb8072" stroke="transparent" points="1605,-10 1605,-30 1625,-30 1625,-10 1605,-10"/>
<text text-anchor="start" x="1628.73" y="-15.4" font-family="Times-12" font-size="14.00"> &#160;Exports</text>
<g id="clust1" class="cluster">
<title>cluster_AppModule</title>
<polygon fill="none" stroke="black" stroke-dasharray="1,5" points="8,-70 8,-268 2886,-268 2886,-70 8,-70"/>
</g>
<g id="clust2" class="cluster">
<title>cluster_AppModule_declarations</title>
<polygon fill="none" stroke="black" points="539,-78 539,-130 2878,-130 2878,-78 539,-78"/>
</g>
<g id="clust17" class="cluster">
<title>cluster_AppModule_imports</title>
<polygon fill="none" stroke="black" points="212,-78 212,-130 531,-130 531,-78 212,-78"/>
</g>
<g id="clust19" class="cluster">
<title>cluster_AppModule_bootstrap</title>
<polygon fill="none" stroke="black" points="1379,-208 1379,-260 1503,-260 1503,-208 1379,-208"/>
</g>
<g id="clust20" class="cluster">
<title>cluster_AppModule_providers</title>
<polygon fill="none" stroke="black" points="16,-78 16,-130 204,-130 204,-78 16,-78"/>
</g>
<!-- AboutComponent -->
<g id="node1" class="node">
<title>AboutComponent</title>
<polygon fill="#ffffb3" stroke="black" points="2870.33,-122 2753.67,-122 2753.67,-86 2870.33,-86 2870.33,-122"/>
<text text-anchor="middle" x="2812" y="-99.8" font-family="Times,serif" font-size="14.00">AboutComponent</text>
</g>
<!-- AppModule -->
<g id="node15" class="node">
<title>AppModule</title>
<polygon fill="#8dd3c7" stroke="black" points="1482.66,-187 1479.66,-191 1458.66,-191 1455.66,-187 1399.34,-187 1399.34,-151 1482.66,-151 1482.66,-187"/>
<text text-anchor="middle" x="1441" y="-164.8" font-family="Times,serif" font-size="14.00">AppModule</text>
</g>
<!-- AboutComponent&#45;&gt;AppModule -->
<g id="edge1" class="edge">
<title>AboutComponent&#45;&gt;AppModule</title>
<path fill="none" stroke="black" d="M2812,-122.32C2812,-145.66 2812,-183 2812,-183 2812,-183 1492.78,-183 1492.78,-183"/>
<polygon fill="black" stroke="black" points="1492.78,-179.5 1482.78,-183 1492.78,-186.5 1492.78,-179.5"/>
</g>
<!-- AnaBodyComponent -->
<g id="node2" class="node">
<title>AnaBodyComponent</title>
<polygon fill="#ffffb3" stroke="black" points="2735.49,-122 2600.51,-122 2600.51,-86 2735.49,-86 2735.49,-122"/>
<text text-anchor="middle" x="2668" y="-99.8" font-family="Times,serif" font-size="14.00">AnaBodyComponent</text>
</g>
<!-- AnaBodyComponent&#45;&gt;AppModule -->
<g id="edge2" class="edge">
<title>AnaBodyComponent&#45;&gt;AppModule</title>
<path fill="none" stroke="black" d="M2668,-122.16C2668,-144.35 2668,-179 2668,-179 2668,-179 1492.88,-179 1492.88,-179"/>
<polygon fill="black" stroke="black" points="1492.88,-175.5 1482.88,-179 1492.88,-182.5 1492.88,-175.5"/>
</g>
<!-- AnaCardsComponent -->
<g id="node3" class="node">
<title>AnaCardsComponent</title>
<polygon fill="#ffffb3" stroke="black" points="2582.81,-122 2445.19,-122 2445.19,-86 2582.81,-86 2582.81,-122"/>
<text text-anchor="middle" x="2514" y="-99.8" font-family="Times,serif" font-size="14.00">AnaCardsComponent</text>
</g>
<!-- AnaCardsComponent&#45;&gt;AppModule -->
<g id="edge3" class="edge">
<title>AnaCardsComponent&#45;&gt;AppModule</title>
<path fill="none" stroke="black" d="M2514,-122.28C2514,-143.32 2514,-175 2514,-175 2514,-175 1492.73,-175 1492.73,-175"/>
<polygon fill="black" stroke="black" points="1492.73,-171.5 1482.73,-175 1492.73,-178.5 1492.73,-171.5"/>
</g>
<!-- AnaCarouselComponent -->
<g id="node4" class="node">
<title>AnaCarouselComponent</title>
<polygon fill="#ffffb3" stroke="black" points="2427.42,-122 2272.58,-122 2272.58,-86 2427.42,-86 2427.42,-122"/>
<text text-anchor="middle" x="2350" y="-99.8" font-family="Times,serif" font-size="14.00">AnaCarouselComponent</text>
</g>
<!-- AnaCarouselComponent&#45;&gt;AppModule -->
<g id="edge4" class="edge">
<title>AnaCarouselComponent&#45;&gt;AppModule</title>
<path fill="none" stroke="black" d="M2350,-122.31C2350,-142.15 2350,-171 2350,-171 2350,-171 1492.72,-171 1492.72,-171"/>
<polygon fill="black" stroke="black" points="1492.72,-167.5 1482.72,-171 1492.72,-174.5 1492.72,-167.5"/>
</g>
<!-- AnaPageNotFoundComponent -->
<g id="node5" class="node">
<title>AnaPageNotFoundComponent</title>
<polygon fill="#ffffb3" stroke="black" points="2254.15,-122 2065.85,-122 2065.85,-86 2254.15,-86 2254.15,-122"/>
<text text-anchor="middle" x="2160" y="-99.8" font-family="Times,serif" font-size="14.00">AnaPageNotFoundComponent</text>
</g>
<!-- AnaPageNotFoundComponent&#45;&gt;AppModule -->
<g id="edge5" class="edge">
<title>AnaPageNotFoundComponent&#45;&gt;AppModule</title>
<path fill="none" stroke="black" d="M2160,-122.22C2160,-140.83 2160,-167 2160,-167 2160,-167 1492.76,-167 1492.76,-167"/>
<polygon fill="black" stroke="black" points="1492.76,-163.5 1482.76,-167 1492.76,-170.5 1492.76,-163.5"/>
</g>
<!-- AnafooterComponent -->
<g id="node6" class="node">
<title>AnafooterComponent</title>
<polygon fill="#ffffb3" stroke="black" points="2048.08,-122 1909.92,-122 1909.92,-86 2048.08,-86 2048.08,-122"/>
<text text-anchor="middle" x="1979" y="-99.8" font-family="Times,serif" font-size="14.00">AnafooterComponent</text>
</g>
<!-- AnafooterComponent&#45;&gt;AppModule -->
<g id="edge6" class="edge">
<title>AnafooterComponent&#45;&gt;AppModule</title>
<path fill="none" stroke="black" d="M1979,-122.02C1979,-139.37 1979,-163 1979,-163 1979,-163 1492.77,-163 1492.77,-163"/>
<polygon fill="black" stroke="black" points="1492.77,-159.5 1482.77,-163 1492.77,-166.5 1492.77,-159.5"/>
</g>
<!-- AnaheaderComponent -->
<g id="node7" class="node">
<title>AnaheaderComponent</title>
<polygon fill="#ffffb3" stroke="black" points="1891.96,-122 1750.04,-122 1750.04,-86 1891.96,-86 1891.96,-122"/>
<text text-anchor="middle" x="1821" y="-99.8" font-family="Times,serif" font-size="14.00">AnaheaderComponent</text>
</g>
<!-- AnaheaderComponent&#45;&gt;AppModule -->
<g id="edge7" class="edge">
<title>AnaheaderComponent&#45;&gt;AppModule</title>
<path fill="none" stroke="black" d="M1821,-122.01C1821,-138.05 1821,-159 1821,-159 1821,-159 1492.75,-159 1492.75,-159"/>
<polygon fill="black" stroke="black" points="1492.75,-155.5 1482.75,-159 1492.75,-162.5 1492.75,-155.5"/>
</g>
<!-- AppComponent -->
<g id="node8" class="node">
<title>AppComponent</title>
<polygon fill="#ffffb3" stroke="black" points="1731.94,-122 1626.06,-122 1626.06,-86 1731.94,-86 1731.94,-122"/>
<text text-anchor="middle" x="1679" y="-99.8" font-family="Times,serif" font-size="14.00">AppComponent</text>
</g>
<!-- AppComponent&#45;&gt;AppModule -->
<g id="edge8" class="edge">
<title>AppComponent&#45;&gt;AppModule</title>
<path fill="none" stroke="black" d="M1679,-122.12C1679,-136.78 1679,-155 1679,-155 1679,-155 1492.73,-155 1492.73,-155"/>
<polygon fill="black" stroke="black" points="1492.73,-151.5 1482.73,-155 1492.73,-158.5 1492.73,-151.5"/>
</g>
<!-- CartComponentComponent -->
<g id="node9" class="node">
<title>CartComponentComponent</title>
<polygon fill="#ffffb3" stroke="black" points="1608.27,-122 1437.73,-122 1437.73,-86 1608.27,-86 1608.27,-122"/>
<text text-anchor="middle" x="1523" y="-99.8" font-family="Times,serif" font-size="14.00">CartComponentComponent</text>
</g>
<!-- CartComponentComponent&#45;&gt;AppModule -->
<g id="edge9" class="edge">
<title>CartComponentComponent&#45;&gt;AppModule</title>
<path fill="none" stroke="black" d="M1460.22,-122.11C1460.22,-122.11 1460.22,-140.99 1460.22,-140.99"/>
<polygon fill="black" stroke="black" points="1456.72,-140.99 1460.22,-150.99 1463.72,-140.99 1456.72,-140.99"/>
</g>
<!-- DetailsComponent -->
<g id="node10" class="node">
<title>DetailsComponent</title>
<polygon fill="#ffffb3" stroke="black" points="1419.48,-122 1298.52,-122 1298.52,-86 1419.48,-86 1419.48,-122"/>
<text text-anchor="middle" x="1359" y="-99.8" font-family="Times,serif" font-size="14.00">DetailsComponent</text>
</g>
<!-- DetailsComponent&#45;&gt;AppModule -->
<g id="edge10" class="edge">
<title>DetailsComponent&#45;&gt;AppModule</title>
<path fill="none" stroke="black" d="M1409.33,-122.11C1409.33,-122.11 1409.33,-140.99 1409.33,-140.99"/>
<polygon fill="black" stroke="black" points="1405.83,-140.99 1409.33,-150.99 1412.83,-140.99 1405.83,-140.99"/>
</g>
<!-- DetailsComponentComponent -->
<g id="node11" class="node">
<title>DetailsComponentComponent</title>
<polygon fill="#ffffb3" stroke="black" points="1280.32,-122 1093.68,-122 1093.68,-86 1280.32,-86 1280.32,-122"/>
<text text-anchor="middle" x="1187" y="-99.8" font-family="Times,serif" font-size="14.00">DetailsComponentComponent</text>
</g>
<!-- DetailsComponentComponent&#45;&gt;AppModule -->
<g id="edge11" class="edge">
<title>DetailsComponentComponent&#45;&gt;AppModule</title>
<path fill="none" stroke="black" d="M1187,-122.12C1187,-136.78 1187,-155 1187,-155 1187,-155 1389.34,-155 1389.34,-155"/>
<polygon fill="black" stroke="black" points="1389.34,-158.5 1399.34,-155 1389.34,-151.5 1389.34,-158.5"/>
</g>
<!-- LoginComponent -->
<g id="node12" class="node">
<title>LoginComponent</title>
<polygon fill="#ffffb3" stroke="black" points="1075.28,-122 960.72,-122 960.72,-86 1075.28,-86 1075.28,-122"/>
<text text-anchor="middle" x="1018" y="-99.8" font-family="Times,serif" font-size="14.00">LoginComponent</text>
</g>
<!-- LoginComponent&#45;&gt;AppModule -->
<g id="edge12" class="edge">
<title>LoginComponent&#45;&gt;AppModule</title>
<path fill="none" stroke="black" d="M1037.13,-122.01C1037.13,-138.05 1037.13,-159 1037.13,-159 1037.13,-159 1389.3,-159 1389.3,-159"/>
<polygon fill="black" stroke="black" points="1389.3,-162.5 1399.3,-159 1389.3,-155.5 1389.3,-162.5"/>
</g>
<!-- LoginComponent&#45;&gt;AppModule -->
<g id="edge13" class="edge">
<title>LoginComponent&#45;&gt;AppModule</title>
<path fill="none" stroke="black" d="M998.87,-122.02C998.87,-139.37 998.87,-163 998.87,-163 998.87,-163 1389.01,-163 1389.01,-163"/>
<polygon fill="black" stroke="black" points="1389.01,-166.5 1399.01,-163 1389.01,-159.5 1389.01,-166.5"/>
</g>
<!-- SettingsComponentComponent -->
<g id="node13" class="node">
<title>SettingsComponentComponent</title>
<polygon fill="#ffffb3" stroke="black" points="942.78,-122 751.22,-122 751.22,-86 942.78,-86 942.78,-122"/>
<text text-anchor="middle" x="847" y="-99.8" font-family="Times,serif" font-size="14.00">SettingsComponentComponent</text>
</g>
<!-- SettingsComponentComponent&#45;&gt;AppModule -->
<g id="edge14" class="edge">
<title>SettingsComponentComponent&#45;&gt;AppModule</title>
<path fill="none" stroke="black" d="M847,-122.22C847,-140.83 847,-167 847,-167 847,-167 1389.23,-167 1389.23,-167"/>
<polygon fill="black" stroke="black" points="1389.23,-170.5 1399.23,-167 1389.23,-163.5 1389.23,-170.5"/>
</g>
<!-- SignupComponentComponent -->
<g id="node14" class="node">
<title>SignupComponentComponent</title>
<polygon fill="#ffffb3" stroke="black" points="733.34,-122 546.66,-122 546.66,-86 733.34,-86 733.34,-122"/>
<text text-anchor="middle" x="640" y="-99.8" font-family="Times,serif" font-size="14.00">SignupComponentComponent</text>
</g>
<!-- SignupComponentComponent&#45;&gt;AppModule -->
<g id="edge15" class="edge">
<title>SignupComponentComponent&#45;&gt;AppModule</title>
<path fill="none" stroke="black" d="M640,-122.31C640,-142.15 640,-171 640,-171 640,-171 1389.34,-171 1389.34,-171"/>
<polygon fill="black" stroke="black" points="1389.34,-174.5 1399.34,-171 1389.34,-167.5 1389.34,-174.5"/>
</g>
<!-- AppComponent  -->
<g id="node18" class="node">
<title>AppComponent </title>
<polygon fill="#80b1d3" stroke="black" points="1495.44,-252 1386.56,-252 1386.56,-216 1495.44,-216 1495.44,-252"/>
<text text-anchor="middle" x="1441" y="-229.8" font-family="Times,serif" font-size="14.00">AppComponent </text>
</g>
<!-- AppModule&#45;&gt;AppComponent  -->
<g id="edge18" class="edge">
<title>AppModule&#45;&gt;AppComponent </title>
<path fill="none" stroke="black" stroke-dasharray="1,5" d="M1441,-187.11C1441,-187.11 1441,-205.99 1441,-205.99"/>
<polygon fill="black" stroke="black" points="1437.5,-205.99 1441,-215.99 1444.5,-205.99 1437.5,-205.99"/>
</g>
<!-- AppRoutingModule -->
<g id="node16" class="node">
<title>AppRoutingModule</title>
<polygon fill="#8dd3c7" stroke="black" points="523.27,-122 520.27,-126 499.27,-126 496.27,-122 394.73,-122 394.73,-86 523.27,-86 523.27,-122"/>
<text text-anchor="middle" x="459" y="-99.8" font-family="Times,serif" font-size="14.00">AppRoutingModule</text>
</g>
<!-- AppRoutingModule&#45;&gt;AppModule -->
<g id="edge16" class="edge">
<title>AppRoutingModule&#45;&gt;AppModule</title>
<path fill="none" stroke="black" d="M459,-122.28C459,-143.32 459,-175 459,-175 459,-175 1389.12,-175 1389.12,-175"/>
<polygon fill="black" stroke="black" points="1389.12,-178.5 1399.12,-175 1389.12,-171.5 1389.12,-178.5"/>
</g>
<!-- MaterialExampleModule -->
<g id="node17" class="node">
<title>MaterialExampleModule</title>
<polygon fill="#8dd3c7" stroke="black" points="376.23,-122 373.23,-126 352.23,-126 349.23,-122 219.77,-122 219.77,-86 376.23,-86 376.23,-122"/>
<text text-anchor="middle" x="298" y="-99.8" font-family="Times,serif" font-size="14.00">MaterialExampleModule</text>
</g>
<!-- MaterialExampleModule&#45;&gt;AppModule -->
<g id="edge17" class="edge">
<title>MaterialExampleModule&#45;&gt;AppModule</title>
<path fill="none" stroke="black" d="M298,-122.16C298,-144.35 298,-179 298,-179 298,-179 1389.31,-179 1389.31,-179"/>
<polygon fill="black" stroke="black" points="1389.31,-182.5 1399.31,-179 1389.31,-175.5 1389.31,-182.5"/>
</g>
<!-- CardDetailsService -->
<g id="node19" class="node">
<title>CardDetailsService</title>
<ellipse fill="#fdb462" stroke="black" cx="110" cy="-104" rx="86.23" ry="18"/>
<text text-anchor="middle" x="110" y="-99.8" font-family="Times,serif" font-size="14.00">CardDetailsService</text>
</g>
<!-- CardDetailsService&#45;&gt;AppModule -->
<g id="edge19" class="edge">
<title>CardDetailsService&#45;&gt;AppModule</title>
<path fill="none" stroke="black" d="M110,-122.32C110,-145.66 110,-183 110,-183 110,-183 1389.34,-183 1389.34,-183"/>
<polygon fill="black" stroke="black" points="1389.34,-186.5 1399.34,-183 1389.34,-179.5 1389.34,-186.5"/>
</g>
</g>
</svg>
